<?xml version="1.0" encoding="utf-8" standalone="no"?>
<!DOCTYPE svg PUBLIC "-//W3C//DTD SVG 1.1//EN"
  "http://www.w3.org/Graphics/SVG/1.1/DTD/svg11.dtd">
<!-- Created with matplotlib (https://matplotlib.org/) -->
<svg height="345.6pt" version="1.1" viewBox="0 0 460.8 345.6" width="460.8pt" xmlns="http://www.w3.org/2000/svg" xmlns:xlink="http://www.w3.org/1999/xlink">
 <metadata>
  <rdf:RDF xmlns:cc="http://creativecommons.org/ns#" xmlns:dc="http://purl.org/dc/elements/1.1/" xmlns:rdf="http://www.w3.org/1999/02/22-rdf-syntax-ns#">
   <cc:Work>
    <dc:type rdf:resource="http://purl.org/dc/dcmitype/StillImage"/>
    <dc:date>2022-04-01T11:34:42.610374</dc:date>
    <dc:format>image/svg+xml</dc:format>
    <dc:creator>
     <cc:Agent>
      <dc:title>Matplotlib v3.3.4, https://matplotlib.org/</dc:title>
     </cc:Agent>
    </dc:creator>
   </cc:Work>
  </rdf:RDF>
 </metadata>
 <defs>
  <style type="text/css">*{stroke-linecap:butt;stroke-linejoin:round;}</style>
 </defs>
 <g id="figure_1">
  <g id="patch_1">
   <path d="M 0 345.6 
L 460.8 345.6 
L 460.8 0 
L 0 0 
z
" style="fill:#ffffff;"/>
  </g>
  <g id="axes_1">
   <g id="patch_2">
    <path d="M 57.6 307.584 
L 414.72 307.584 
L 414.72 41.472 
L 57.6 41.472 
z
" style="fill:#ffffff;"/>
   </g>
   <g id="matplotlib.axis_1">
    <g id="xtick_1">
     <g id="line2d_1">
      <defs>
       <path d="M 0 0 
L 0 3.5 
" id="m3f0c44ba03" style="stroke:#000000;stroke-width:0.8;"/>
      </defs>
      <g>
       <use style="stroke:#000000;stroke-width:0.8;" x="73.832727" xlink:href="#m3f0c44ba03" y="307.584"/>
      </g>
     </g>
     <g id="text_1">
      <!-- 0 -->
      <g transform="translate(70.651477 322.182437)scale(0.1 -0.1)">
       <defs>
        <path d="M 31.78125 66.40625 
Q 24.171875 66.40625 20.328125 58.90625 
Q 16.5 51.421875 16.5 36.375 
Q 16.5 21.390625 20.328125 13.890625 
Q 24.171875 6.390625 31.78125 6.390625 
Q 39.453125 6.390625 43.28125 13.890625 
Q 47.125 21.390625 47.125 36.375 
Q 47.125 51.421875 43.28125 58.90625 
Q 39.453125 66.40625 31.78125 66.40625 
z
M 31.78125 74.21875 
Q 44.046875 74.21875 50.515625 64.515625 
Q 56.984375 54.828125 56.984375 36.375 
Q 56.984375 17.96875 50.515625 8.265625 
Q 44.046875 -1.421875 31.78125 -1.421875 
Q 19.53125 -1.421875 13.0625 8.265625 
Q 6.59375 17.96875 6.59375 36.375 
Q 6.59375 54.828125 13.0625 64.515625 
Q 19.53125 74.21875 31.78125 74.21875 
z
" id="DejaVuSans-48"/>
       </defs>
       <use xlink:href="#DejaVuSans-48"/>
      </g>
     </g>
    </g>
    <g id="xtick_2">
     <g id="line2d_2">
      <g>
       <use style="stroke:#000000;stroke-width:0.8;" x="120.211286" xlink:href="#m3f0c44ba03" y="307.584"/>
      </g>
     </g>
     <g id="text_2">
      <!-- 10000 -->
      <g transform="translate(104.305036 322.182437)scale(0.1 -0.1)">
       <defs>
        <path d="M 12.40625 8.296875 
L 28.515625 8.296875 
L 28.515625 63.921875 
L 10.984375 60.40625 
L 10.984375 69.390625 
L 28.421875 72.90625 
L 38.28125 72.90625 
L 38.28125 8.296875 
L 54.390625 8.296875 
L 54.390625 0 
L 12.40625 0 
z
" id="DejaVuSans-49"/>
       </defs>
       <use xlink:href="#DejaVuSans-49"/>
       <use x="63.623047" xlink:href="#DejaVuSans-48"/>
       <use x="127.246094" xlink:href="#DejaVuSans-48"/>
       <use x="190.869141" xlink:href="#DejaVuSans-48"/>
       <use x="254.492188" xlink:href="#DejaVuSans-48"/>
      </g>
     </g>
    </g>
    <g id="xtick_3">
     <g id="line2d_3">
      <g>
       <use style="stroke:#000000;stroke-width:0.8;" x="166.589844" xlink:href="#m3f0c44ba03" y="307.584"/>
      </g>
     </g>
     <g id="text_3">
      <!-- 20000 -->
      <g transform="translate(150.683594 322.182437)scale(0.1 -0.1)">
       <defs>
        <path d="M 19.1875 8.296875 
L 53.609375 8.296875 
L 53.609375 0 
L 7.328125 0 
L 7.328125 8.296875 
Q 12.9375 14.109375 22.625 23.890625 
Q 32.328125 33.6875 34.8125 36.53125 
Q 39.546875 41.84375 41.421875 45.53125 
Q 43.3125 49.21875 43.3125 52.78125 
Q 43.3125 58.59375 39.234375 62.25 
Q 35.15625 65.921875 28.609375 65.921875 
Q 23.96875 65.921875 18.8125 64.3125 
Q 13.671875 62.703125 7.8125 59.421875 
L 7.8125 69.390625 
Q 13.765625 71.78125 18.9375 73 
Q 24.125 74.21875 28.421875 74.21875 
Q 39.75 74.21875 46.484375 68.546875 
Q 53.21875 62.890625 53.21875 53.421875 
Q 53.21875 48.921875 51.53125 44.890625 
Q 49.859375 40.875 45.40625 35.40625 
Q 44.1875 33.984375 37.640625 27.21875 
Q 31.109375 20.453125 19.1875 8.296875 
z
" id="DejaVuSans-50"/>
       </defs>
       <use xlink:href="#DejaVuSans-50"/>
       <use x="63.623047" xlink:href="#DejaVuSans-48"/>
       <use x="127.246094" xlink:href="#DejaVuSans-48"/>
       <use x="190.869141" xlink:href="#DejaVuSans-48"/>
       <use x="254.492188" xlink:href="#DejaVuSans-48"/>
      </g>
     </g>
    </g>
    <g id="xtick_4">
     <g id="line2d_4">
      <g>
       <use style="stroke:#000000;stroke-width:0.8;" x="212.968402" xlink:href="#m3f0c44ba03" y="307.584"/>
      </g>
     </g>
     <g id="text_4">
      <!-- 30000 -->
      <g transform="translate(197.062152 322.182437)scale(0.1 -0.1)">
       <defs>
        <path d="M 40.578125 39.3125 
Q 47.65625 37.796875 51.625 33 
Q 55.609375 28.21875 55.609375 21.1875 
Q 55.609375 10.40625 48.1875 4.484375 
Q 40.765625 -1.421875 27.09375 -1.421875 
Q 22.515625 -1.421875 17.65625 -0.515625 
Q 12.796875 0.390625 7.625 2.203125 
L 7.625 11.71875 
Q 11.71875 9.328125 16.59375 8.109375 
Q 21.484375 6.890625 26.8125 6.890625 
Q 36.078125 6.890625 40.9375 10.546875 
Q 45.796875 14.203125 45.796875 21.1875 
Q 45.796875 27.640625 41.28125 31.265625 
Q 36.765625 34.90625 28.71875 34.90625 
L 20.21875 34.90625 
L 20.21875 43.015625 
L 29.109375 43.015625 
Q 36.375 43.015625 40.234375 45.921875 
Q 44.09375 48.828125 44.09375 54.296875 
Q 44.09375 59.90625 40.109375 62.90625 
Q 36.140625 65.921875 28.71875 65.921875 
Q 24.65625 65.921875 20.015625 65.03125 
Q 15.375 64.15625 9.8125 62.3125 
L 9.8125 71.09375 
Q 15.4375 72.65625 20.34375 73.4375 
Q 25.25 74.21875 29.59375 74.21875 
Q 40.828125 74.21875 47.359375 69.109375 
Q 53.90625 64.015625 53.90625 55.328125 
Q 53.90625 49.265625 50.4375 45.09375 
Q 46.96875 40.921875 40.578125 39.3125 
z
" id="DejaVuSans-51"/>
       </defs>
       <use xlink:href="#DejaVuSans-51"/>
       <use x="63.623047" xlink:href="#DejaVuSans-48"/>
       <use x="127.246094" xlink:href="#DejaVuSans-48"/>
       <use x="190.869141" xlink:href="#DejaVuSans-48"/>
       <use x="254.492188" xlink:href="#DejaVuSans-48"/>
      </g>
     </g>
    </g>
    <g id="xtick_5">
     <g id="line2d_5">
      <g>
       <use style="stroke:#000000;stroke-width:0.8;" x="259.34696" xlink:href="#m3f0c44ba03" y="307.584"/>
      </g>
     </g>
     <g id="text_5">
      <!-- 40000 -->
      <g transform="translate(243.44071 322.182437)scale(0.1 -0.1)">
       <defs>
        <path d="M 37.796875 64.3125 
L 12.890625 25.390625 
L 37.796875 25.390625 
z
M 35.203125 72.90625 
L 47.609375 72.90625 
L 47.609375 25.390625 
L 58.015625 25.390625 
L 58.015625 17.1875 
L 47.609375 17.1875 
L 47.609375 0 
L 37.796875 0 
L 37.796875 17.1875 
L 4.890625 17.1875 
L 4.890625 26.703125 
z
" id="DejaVuSans-52"/>
       </defs>
       <use xlink:href="#DejaVuSans-52"/>
       <use x="63.623047" xlink:href="#DejaVuSans-48"/>
       <use x="127.246094" xlink:href="#DejaVuSans-48"/>
       <use x="190.869141" xlink:href="#DejaVuSans-48"/>
       <use x="254.492188" xlink:href="#DejaVuSans-48"/>
      </g>
     </g>
    </g>
    <g id="xtick_6">
     <g id="line2d_6">
      <g>
       <use style="stroke:#000000;stroke-width:0.8;" x="305.725518" xlink:href="#m3f0c44ba03" y="307.584"/>
      </g>
     </g>
     <g id="text_6">
      <!-- 50000 -->
      <g transform="translate(289.819268 322.182437)scale(0.1 -0.1)">
       <defs>
        <path d="M 10.796875 72.90625 
L 49.515625 72.90625 
L 49.515625 64.59375 
L 19.828125 64.59375 
L 19.828125 46.734375 
Q 21.96875 47.46875 24.109375 47.828125 
Q 26.265625 48.1875 28.421875 48.1875 
Q 40.625 48.1875 47.75 41.5 
Q 54.890625 34.8125 54.890625 23.390625 
Q 54.890625 11.625 47.5625 5.09375 
Q 40.234375 -1.421875 26.90625 -1.421875 
Q 22.3125 -1.421875 17.546875 -0.640625 
Q 12.796875 0.140625 7.71875 1.703125 
L 7.71875 11.625 
Q 12.109375 9.234375 16.796875 8.0625 
Q 21.484375 6.890625 26.703125 6.890625 
Q 35.15625 6.890625 40.078125 11.328125 
Q 45.015625 15.765625 45.015625 23.390625 
Q 45.015625 31 40.078125 35.4375 
Q 35.15625 39.890625 26.703125 39.890625 
Q 22.75 39.890625 18.8125 39.015625 
Q 14.890625 38.140625 10.796875 36.28125 
z
" id="DejaVuSans-53"/>
       </defs>
       <use xlink:href="#DejaVuSans-53"/>
       <use x="63.623047" xlink:href="#DejaVuSans-48"/>
       <use x="127.246094" xlink:href="#DejaVuSans-48"/>
       <use x="190.869141" xlink:href="#DejaVuSans-48"/>
       <use x="254.492188" xlink:href="#DejaVuSans-48"/>
      </g>
     </g>
    </g>
    <g id="xtick_7">
     <g id="line2d_7">
      <g>
       <use style="stroke:#000000;stroke-width:0.8;" x="352.104077" xlink:href="#m3f0c44ba03" y="307.584"/>
      </g>
     </g>
     <g id="text_7">
      <!-- 60000 -->
      <g transform="translate(336.197827 322.182437)scale(0.1 -0.1)">
       <defs>
        <path d="M 33.015625 40.375 
Q 26.375 40.375 22.484375 35.828125 
Q 18.609375 31.296875 18.609375 23.390625 
Q 18.609375 15.53125 22.484375 10.953125 
Q 26.375 6.390625 33.015625 6.390625 
Q 39.65625 6.390625 43.53125 10.953125 
Q 47.40625 15.53125 47.40625 23.390625 
Q 47.40625 31.296875 43.53125 35.828125 
Q 39.65625 40.375 33.015625 40.375 
z
M 52.59375 71.296875 
L 52.59375 62.3125 
Q 48.875 64.0625 45.09375 64.984375 
Q 41.3125 65.921875 37.59375 65.921875 
Q 27.828125 65.921875 22.671875 59.328125 
Q 17.53125 52.734375 16.796875 39.40625 
Q 19.671875 43.65625 24.015625 45.921875 
Q 28.375 48.1875 33.59375 48.1875 
Q 44.578125 48.1875 50.953125 41.515625 
Q 57.328125 34.859375 57.328125 23.390625 
Q 57.328125 12.15625 50.6875 5.359375 
Q 44.046875 -1.421875 33.015625 -1.421875 
Q 20.359375 -1.421875 13.671875 8.265625 
Q 6.984375 17.96875 6.984375 36.375 
Q 6.984375 53.65625 15.1875 63.9375 
Q 23.390625 74.21875 37.203125 74.21875 
Q 40.921875 74.21875 44.703125 73.484375 
Q 48.484375 72.75 52.59375 71.296875 
z
" id="DejaVuSans-54"/>
       </defs>
       <use xlink:href="#DejaVuSans-54"/>
       <use x="63.623047" xlink:href="#DejaVuSans-48"/>
       <use x="127.246094" xlink:href="#DejaVuSans-48"/>
       <use x="190.869141" xlink:href="#DejaVuSans-48"/>
       <use x="254.492188" xlink:href="#DejaVuSans-48"/>
      </g>
     </g>
    </g>
    <g id="xtick_8">
     <g id="line2d_8">
      <g>
       <use style="stroke:#000000;stroke-width:0.8;" x="398.482635" xlink:href="#m3f0c44ba03" y="307.584"/>
      </g>
     </g>
     <g id="text_8">
      <!-- 70000 -->
      <g transform="translate(382.576385 322.182437)scale(0.1 -0.1)">
       <defs>
        <path d="M 8.203125 72.90625 
L 55.078125 72.90625 
L 55.078125 68.703125 
L 28.609375 0 
L 18.3125 0 
L 43.21875 64.59375 
L 8.203125 64.59375 
z
" id="DejaVuSans-55"/>
       </defs>
       <use xlink:href="#DejaVuSans-55"/>
       <use x="63.623047" xlink:href="#DejaVuSans-48"/>
       <use x="127.246094" xlink:href="#DejaVuSans-48"/>
       <use x="190.869141" xlink:href="#DejaVuSans-48"/>
       <use x="254.492188" xlink:href="#DejaVuSans-48"/>
      </g>
     </g>
    </g>
   </g>
   <g id="matplotlib.axis_2">
    <g id="ytick_1">
     <g id="line2d_9">
      <defs>
       <path d="M 0 0 
L -3.5 0 
" id="m999bec3c68" style="stroke:#000000;stroke-width:0.8;"/>
      </defs>
      <g>
       <use style="stroke:#000000;stroke-width:0.8;" x="57.6" xlink:href="#m999bec3c68" y="273.074062"/>
      </g>
     </g>
     <g id="text_9">
      <!-- −150 -->
      <g transform="translate(23.132812 276.873281)scale(0.1 -0.1)">
       <defs>
        <path d="M 10.59375 35.5 
L 73.1875 35.5 
L 73.1875 27.203125 
L 10.59375 27.203125 
z
" id="DejaVuSans-8722"/>
       </defs>
       <use xlink:href="#DejaVuSans-8722"/>
       <use x="83.789062" xlink:href="#DejaVuSans-49"/>
       <use x="147.412109" xlink:href="#DejaVuSans-53"/>
       <use x="211.035156" xlink:href="#DejaVuSans-48"/>
      </g>
     </g>
    </g>
    <g id="ytick_2">
     <g id="line2d_10">
      <g>
       <use style="stroke:#000000;stroke-width:0.8;" x="57.6" xlink:href="#m999bec3c68" y="231.708803"/>
      </g>
     </g>
     <g id="text_10">
      <!-- −100 -->
      <g transform="translate(23.132812 235.508022)scale(0.1 -0.1)">
       <use xlink:href="#DejaVuSans-8722"/>
       <use x="83.789062" xlink:href="#DejaVuSans-49"/>
       <use x="147.412109" xlink:href="#DejaVuSans-48"/>
       <use x="211.035156" xlink:href="#DejaVuSans-48"/>
      </g>
     </g>
    </g>
    <g id="ytick_3">
     <g id="line2d_11">
      <g>
       <use style="stroke:#000000;stroke-width:0.8;" x="57.6" xlink:href="#m999bec3c68" y="190.343544"/>
      </g>
     </g>
     <g id="text_11">
      <!-- −50 -->
      <g transform="translate(29.495313 194.142763)scale(0.1 -0.1)">
       <use xlink:href="#DejaVuSans-8722"/>
       <use x="83.789062" xlink:href="#DejaVuSans-53"/>
       <use x="147.412109" xlink:href="#DejaVuSans-48"/>
      </g>
     </g>
    </g>
    <g id="ytick_4">
     <g id="line2d_12">
      <g>
       <use style="stroke:#000000;stroke-width:0.8;" x="57.6" xlink:href="#m999bec3c68" y="148.978285"/>
      </g>
     </g>
     <g id="text_12">
      <!-- 0 -->
      <g transform="translate(44.2375 152.777504)scale(0.1 -0.1)">
       <use xlink:href="#DejaVuSans-48"/>
      </g>
     </g>
    </g>
    <g id="ytick_5">
     <g id="line2d_13">
      <g>
       <use style="stroke:#000000;stroke-width:0.8;" x="57.6" xlink:href="#m999bec3c68" y="107.613027"/>
      </g>
     </g>
     <g id="text_13">
      <!-- 50 -->
      <g transform="translate(37.875 111.412245)scale(0.1 -0.1)">
       <use xlink:href="#DejaVuSans-53"/>
       <use x="63.623047" xlink:href="#DejaVuSans-48"/>
      </g>
     </g>
    </g>
    <g id="ytick_6">
     <g id="line2d_14">
      <g>
       <use style="stroke:#000000;stroke-width:0.8;" x="57.6" xlink:href="#m999bec3c68" y="66.247768"/>
      </g>
     </g>
     <g id="text_14">
      <!-- 100 -->
      <g transform="translate(31.5125 70.046987)scale(0.1 -0.1)">
       <use xlink:href="#DejaVuSans-49"/>
       <use x="63.623047" xlink:href="#DejaVuSans-48"/>
       <use x="127.246094" xlink:href="#DejaVuSans-48"/>
      </g>
     </g>
    </g>
    <g id="text_15">
     <!-- rewards -->
     <g transform="translate(17.053125 194.447531)rotate(-90)scale(0.1 -0.1)">
      <defs>
       <path d="M 41.109375 46.296875 
Q 39.59375 47.171875 37.8125 47.578125 
Q 36.03125 48 33.890625 48 
Q 26.265625 48 22.1875 43.046875 
Q 18.109375 38.09375 18.109375 28.8125 
L 18.109375 0 
L 9.078125 0 
L 9.078125 54.6875 
L 18.109375 54.6875 
L 18.109375 46.1875 
Q 20.953125 51.171875 25.484375 53.578125 
Q 30.03125 56 36.53125 56 
Q 37.453125 56 38.578125 55.875 
Q 39.703125 55.765625 41.0625 55.515625 
z
" id="DejaVuSans-114"/>
       <path d="M 56.203125 29.59375 
L 56.203125 25.203125 
L 14.890625 25.203125 
Q 15.484375 15.921875 20.484375 11.0625 
Q 25.484375 6.203125 34.421875 6.203125 
Q 39.59375 6.203125 44.453125 7.46875 
Q 49.3125 8.734375 54.109375 11.28125 
L 54.109375 2.78125 
Q 49.265625 0.734375 44.1875 -0.34375 
Q 39.109375 -1.421875 33.890625 -1.421875 
Q 20.796875 -1.421875 13.15625 6.1875 
Q 5.515625 13.8125 5.515625 26.8125 
Q 5.515625 40.234375 12.765625 48.109375 
Q 20.015625 56 32.328125 56 
Q 43.359375 56 49.78125 48.890625 
Q 56.203125 41.796875 56.203125 29.59375 
z
M 47.21875 32.234375 
Q 47.125 39.59375 43.09375 43.984375 
Q 39.0625 48.390625 32.421875 48.390625 
Q 24.90625 48.390625 20.390625 44.140625 
Q 15.875 39.890625 15.1875 32.171875 
z
" id="DejaVuSans-101"/>
       <path d="M 4.203125 54.6875 
L 13.1875 54.6875 
L 24.421875 12.015625 
L 35.59375 54.6875 
L 46.1875 54.6875 
L 57.421875 12.015625 
L 68.609375 54.6875 
L 77.59375 54.6875 
L 63.28125 0 
L 52.6875 0 
L 40.921875 44.828125 
L 29.109375 0 
L 18.5 0 
z
" id="DejaVuSans-119"/>
       <path d="M 34.28125 27.484375 
Q 23.390625 27.484375 19.1875 25 
Q 14.984375 22.515625 14.984375 16.5 
Q 14.984375 11.71875 18.140625 8.90625 
Q 21.296875 6.109375 26.703125 6.109375 
Q 34.1875 6.109375 38.703125 11.40625 
Q 43.21875 16.703125 43.21875 25.484375 
L 43.21875 27.484375 
z
M 52.203125 31.203125 
L 52.203125 0 
L 43.21875 0 
L 43.21875 8.296875 
Q 40.140625 3.328125 35.546875 0.953125 
Q 30.953125 -1.421875 24.3125 -1.421875 
Q 15.921875 -1.421875 10.953125 3.296875 
Q 6 8.015625 6 15.921875 
Q 6 25.140625 12.171875 29.828125 
Q 18.359375 34.515625 30.609375 34.515625 
L 43.21875 34.515625 
L 43.21875 35.40625 
Q 43.21875 41.609375 39.140625 45 
Q 35.0625 48.390625 27.6875 48.390625 
Q 23 48.390625 18.546875 47.265625 
Q 14.109375 46.140625 10.015625 43.890625 
L 10.015625 52.203125 
Q 14.9375 54.109375 19.578125 55.046875 
Q 24.21875 56 28.609375 56 
Q 40.484375 56 46.34375 49.84375 
Q 52.203125 43.703125 52.203125 31.203125 
z
" id="DejaVuSans-97"/>
       <path d="M 45.40625 46.390625 
L 45.40625 75.984375 
L 54.390625 75.984375 
L 54.390625 0 
L 45.40625 0 
L 45.40625 8.203125 
Q 42.578125 3.328125 38.25 0.953125 
Q 33.9375 -1.421875 27.875 -1.421875 
Q 17.96875 -1.421875 11.734375 6.484375 
Q 5.515625 14.40625 5.515625 27.296875 
Q 5.515625 40.1875 11.734375 48.09375 
Q 17.96875 56 27.875 56 
Q 33.9375 56 38.25 53.625 
Q 42.578125 51.265625 45.40625 46.390625 
z
M 14.796875 27.296875 
Q 14.796875 17.390625 18.875 11.75 
Q 22.953125 6.109375 30.078125 6.109375 
Q 37.203125 6.109375 41.296875 11.75 
Q 45.40625 17.390625 45.40625 27.296875 
Q 45.40625 37.203125 41.296875 42.84375 
Q 37.203125 48.484375 30.078125 48.484375 
Q 22.953125 48.484375 18.875 42.84375 
Q 14.796875 37.203125 14.796875 27.296875 
z
" id="DejaVuSans-100"/>
       <path d="M 44.28125 53.078125 
L 44.28125 44.578125 
Q 40.484375 46.53125 36.375 47.5 
Q 32.28125 48.484375 27.875 48.484375 
Q 21.1875 48.484375 17.84375 46.4375 
Q 14.5 44.390625 14.5 40.28125 
Q 14.5 37.15625 16.890625 35.375 
Q 19.28125 33.59375 26.515625 31.984375 
L 29.59375 31.296875 
Q 39.15625 29.25 43.1875 25.515625 
Q 47.21875 21.78125 47.21875 15.09375 
Q 47.21875 7.46875 41.1875 3.015625 
Q 35.15625 -1.421875 24.609375 -1.421875 
Q 20.21875 -1.421875 15.453125 -0.5625 
Q 10.6875 0.296875 5.421875 2 
L 5.421875 11.28125 
Q 10.40625 8.6875 15.234375 7.390625 
Q 20.0625 6.109375 24.8125 6.109375 
Q 31.15625 6.109375 34.5625 8.28125 
Q 37.984375 10.453125 37.984375 14.40625 
Q 37.984375 18.0625 35.515625 20.015625 
Q 33.0625 21.96875 24.703125 23.78125 
L 21.578125 24.515625 
Q 13.234375 26.265625 9.515625 29.90625 
Q 5.8125 33.546875 5.8125 39.890625 
Q 5.8125 47.609375 11.28125 51.796875 
Q 16.75 56 26.8125 56 
Q 31.78125 56 36.171875 55.265625 
Q 40.578125 54.546875 44.28125 53.078125 
z
" id="DejaVuSans-115"/>
      </defs>
      <use xlink:href="#DejaVuSans-114"/>
      <use x="38.863281" xlink:href="#DejaVuSans-101"/>
      <use x="100.386719" xlink:href="#DejaVuSans-119"/>
      <use x="182.173828" xlink:href="#DejaVuSans-97"/>
      <use x="243.453125" xlink:href="#DejaVuSans-114"/>
      <use x="282.816406" xlink:href="#DejaVuSans-100"/>
      <use x="346.292969" xlink:href="#DejaVuSans-115"/>
     </g>
    </g>
   </g>
   <g id="line2d_15">
    <path clip-path="url(#pd5a428e9c4)" d="M 73.832727 193.652765 
L 74.157707 173.754498 
L 74.807666 164.60019 
L 75.132645 183.690654 
L 75.782604 193.458395 
L 76.107584 203.851798 
L 76.432563 194.122626 
L 76.757543 211.584129 
L 77.407502 171.830276 
L 77.732482 170.114655 
L 78.057461 173.026064 
L 78.382441 295.488 
L 78.70742 185.451492 
L 79.0324 195.433264 
L 79.682359 165.346113 
L 80.007338 185.169893 
L 80.332318 163.533165 
L 80.657297 199.558234 
L 80.982277 191.987287 
L 81.307256 175.861019 
L 81.632236 173.645321 
L 81.957215 180.040722 
L 82.282195 158.309135 
L 82.607174 180.840369 
L 82.932154 182.830511 
L 83.257133 190.445567 
L 83.582113 207.507224 
L 83.907093 179.541736 
L 84.232072 204.907035 
L 84.557052 179.627799 
L 84.882031 187.81657 
L 85.207011 190.239749 
L 85.53199 180.845168 
L 85.85697 181.451392 
L 86.181949 159.088266 
L 86.831908 187.721611 
L 87.156888 191.980684 
L 87.481867 172.597795 
L 87.806847 168.777971 
L 88.131826 193.296703 
L 88.456806 205.074143 
L 88.781785 204.901836 
L 89.106765 161.335191 
L 89.431744 228.230945 
L 89.756724 186.939554 
L 90.081704 169.948837 
L 90.406683 177.839115 
L 90.731663 175.573361 
L 91.056642 176.072683 
L 91.381622 174.43645 
L 92.031581 261.647287 
L 92.35656 162.812742 
L 92.68154 169.866145 
L 93.006519 203.335416 
L 93.331499 200.529716 
L 93.656478 186.150191 
L 93.981458 165.29848 
L 94.306437 162.41695 
L 94.631417 193.335046 
L 94.956396 183.605849 
L 95.606355 177.646672 
L 95.931335 178.773883 
L 96.256314 197.405146 
L 96.581294 161.493527 
L 96.906274 199.312281 
L 97.231253 169.323146 
L 97.556233 187.639615 
L 97.881212 170.027095 
L 98.206192 178.435307 
L 98.531171 180.1051 
L 98.856151 168.869537 
L 99.18113 181.563108 
L 99.50611 189.311702 
L 99.831089 224.117972 
L 100.156069 208.79912 
L 100.481048 182.102848 
L 100.806028 174.742413 
L 101.131007 171.912605 
L 101.455987 171.577127 
L 101.780966 183.099326 
L 102.105946 200.176056 
L 102.430925 174.955253 
L 103.080885 192.824527 
L 103.405864 174.486474 
L 103.730844 179.480183 
L 104.055823 220.910386 
L 104.380803 170.857094 
L 104.705782 206.051013 
L 105.355741 172.987053 
L 105.680721 195.006492 
L 106.0057 172.289252 
L 106.33068 166.838331 
L 106.655659 190.823456 
L 106.980639 180.782129 
L 107.305618 160.614422 
L 107.630598 201.296154 
L 107.955577 190.17632 
L 108.280557 190.328745 
L 108.605536 209.28721 
L 108.930516 177.854628 
L 109.255495 228.366584 
L 109.580475 181.842628 
L 109.905455 168.709527 
L 110.555414 191.507726 
L 110.880393 170.38392 
L 111.205373 173.068229 
L 111.530352 174.165699 
L 111.855332 174.24708 
L 112.180311 174.156228 
L 112.505291 167.6569 
L 112.83027 176.220502 
L 113.15525 192.200472 
L 113.480229 216.406539 
L 113.805209 186.800373 
L 114.130188 172.519716 
L 114.455168 190.008821 
L 114.780147 163.79727 
L 115.105127 229.123877 
L 115.430106 186.57803 
L 115.755086 195.941189 
L 116.080066 166.00126 
L 116.405045 172.531075 
L 116.730025 187.188387 
L 117.055004 194.9414 
L 117.704963 162.173786 
L 118.029943 181.273872 
L 118.354922 185.593112 
L 118.679902 171.025752 
L 119.004881 184.052031 
L 119.329861 172.009979 
L 119.65484 181.825884 
L 119.97982 155.326266 
L 120.629779 210.254254 
L 120.954758 184.357493 
L 121.279738 173.580463 
L 121.604717 176.509516 
L 122.254676 193.34207 
L 122.579656 171.055634 
L 122.904636 189.98397 
L 123.229615 170.767975 
L 123.554595 186.822527 
L 123.879574 169.053565 
L 124.204554 187.306545 
L 124.529533 233.954097 
L 124.854513 174.88684 
L 125.179492 171.58478 
L 125.504472 166.195779 
L 125.829451 185.37093 
L 126.154431 197.857201 
L 126.47941 200.141655 
L 126.80439 171.675505 
L 127.129369 175.380464 
L 127.454349 197.51017 
L 127.779328 171.690347 
L 128.104308 184.355731 
L 128.429287 207.872708 
L 128.754267 162.505583 
L 129.079247 167.148439 
L 129.404226 180.23318 
L 129.729206 164.196677 
L 130.054185 165.959357 
L 130.379165 164.163851 
L 130.704144 169.119177 
L 131.029124 188.290569 
L 131.354103 227.530114 
L 132.004062 183.950662 
L 132.329042 181.848032 
L 132.654021 168.461661 
L 132.979001 181.647831 
L 133.30398 181.273838 
L 133.62896 187.020181 
L 133.953939 173.575461 
L 134.278919 175.550176 
L 134.603898 179.918495 
L 134.928878 180.695439 
L 135.253857 162.403378 
L 135.578837 195.619432 
L 135.903817 168.060516 
L 136.228796 196.150182 
L 136.553776 175.073162 
L 136.878755 195.067154 
L 137.203735 180.147494 
L 137.528714 176.633637 
L 137.853694 161.37907 
L 138.178673 170.645288 
L 138.503653 238.446569 
L 138.828632 174.66316 
L 139.153612 179.987568 
L 139.478591 196.395654 
L 139.803571 176.962368 
L 140.12855 172.796228 
L 140.45353 215.119877 
L 140.778509 167.786209 
L 141.103489 181.349343 
L 141.428468 175.179239 
L 141.753448 162.534654 
L 142.078428 194.825925 
L 142.403407 184.529837 
L 142.728387 180.770463 
L 143.053366 189.331414 
L 143.378346 230.844517 
L 143.703325 181.342695 
L 144.028305 183.567459 
L 144.353284 192.969015 
L 144.678264 171.344986 
L 145.003243 177.132204 
L 145.328223 160.561571 
L 145.653202 171.961543 
L 145.978182 178.015126 
L 146.303161 186.321024 
L 146.628141 174.114897 
L 146.95312 178.933487 
L 147.2781 201.556477 
L 147.603079 163.690373 
L 147.928059 177.40462 
L 148.253038 169.226348 
L 148.578018 187.872695 
L 148.902998 218.840361 
L 149.227977 185.734276 
L 149.552957 186.141709 
L 149.877936 187.650414 
L 150.202916 171.648293 
L 150.527895 213.545466 
L 151.177854 172.120234 
L 151.502834 183.972357 
L 151.827813 172.020837 
L 152.152793 186.217575 
L 152.477772 179.057725 
L 152.802752 183.081238 
L 153.127731 285.817816 
L 153.452711 174.699621 
L 153.77769 171.574906 
L 154.10267 188.235319 
L 154.427649 176.830332 
L 154.752629 181.63561 
L 155.077609 280.616511 
L 155.402588 179.400499 
L 155.727568 184.668277 
L 156.052547 176.405763 
L 156.377527 174.627979 
L 156.702506 163.518472 
L 157.027486 162.893222 
L 157.352465 167.422328 
L 157.677445 197.530076 
L 158.002424 167.064076 
L 158.327404 176.863585 
L 158.652383 176.976049 
L 158.977363 187.239479 
L 159.302342 186.649924 
L 159.627322 177.206471 
L 159.952301 186.477453 
L 160.277281 221.620963 
L 160.60226 169.305978 
L 160.92724 175.252575 
L 161.252219 178.084602 
L 161.577199 177.646025 
L 161.902179 176.456263 
L 162.227158 173.179096 
L 162.877117 197.13465 
L 163.202097 187.370551 
L 163.527076 167.459736 
L 163.852056 167.072425 
L 164.177035 201.358083 
L 164.502015 198.264066 
L 164.826994 175.082894 
L 165.151974 161.034979 
L 165.476953 182.690572 
L 165.801933 171.500884 
L 166.126912 181.570761 
L 166.451892 174.043986 
L 166.776871 190.610765 
L 167.101851 188.843631 
L 167.42683 169.68497 
L 167.75181 206.668657 
L 168.07679 175.372638 
L 168.401769 174.771159 
L 168.726749 166.543823 
L 169.051728 172.737694 
L 169.376708 194.96865 
L 170.351646 162.115725 
L 170.676626 179.496879 
L 171.001605 175.342573 
L 171.326585 181.829036 
L 171.976544 166.982146 
L 172.301523 194.928627 
L 172.626503 184.982098 
L 172.951482 242.435047 
L 173.276462 178.327369 
L 173.601441 172.61214 
L 173.926421 171.81082 
L 174.2514 180.583527 
L 174.57638 176.942584 
L 174.90136 170.817779 
L 175.226339 175.160456 
L 175.551319 172.54583 
L 175.876298 162.96288 
L 176.201278 177.80275 
L 176.526257 171.796143 
L 176.851237 169.3061 
L 177.176216 173.915591 
L 177.501196 182.477506 
L 177.826175 200.33493 
L 178.151155 186.906817 
L 178.476134 192.583893 
L 178.801114 175.688552 
L 179.126093 167.350476 
L 179.451073 187.772387 
L 179.776052 164.901791 
L 180.426011 177.027131 
L 181.075971 159.328887 
L 181.40095 180.334249 
L 181.72593 229.602723 
L 182.050909 170.479217 
L 182.375889 170.049514 
L 182.700868 220.533381 
L 183.025848 181.297727 
L 183.350827 207.817043 
L 183.675807 164.638921 
L 184.000786 178.774749 
L 184.325766 177.095729 
L 184.650745 199.416176 
L 184.975725 171.512349 
L 185.300704 202.375185 
L 185.625684 178.02269 
L 185.950663 196.452853 
L 186.275643 168.34599 
L 186.600622 201.396194 
L 187.250581 183.515915 
L 187.575561 180.522616 
L 187.900541 172.032685 
L 188.22552 181.912636 
L 188.5505 168.950792 
L 188.875479 199.266816 
L 189.525438 172.082549 
L 189.850418 186.634962 
L 190.175397 196.006653 
L 190.825356 180.974224 
L 191.150336 185.043617 
L 191.475315 174.129842 
L 191.800295 191.433973 
L 192.125274 185.046972 
L 192.450254 171.759633 
L 192.775233 201.391811 
L 193.100213 188.810291 
L 193.425192 232.546392 
L 193.750172 167.309771 
L 194.075152 223.033562 
L 194.400131 157.487034 
L 194.725111 216.379062 
L 195.37507 176.215255 
L 195.700049 171.863964 
L 196.025029 188.433464 
L 196.350008 229.890269 
L 196.999967 190.637347 
L 197.324947 170.492126 
L 197.649926 178.383135 
L 197.974906 168.724779 
L 198.299885 175.181421 
L 198.624865 224.483749 
L 199.274824 174.57553 
L 199.924783 204.95306 
L 200.249762 170.355202 
L 200.574742 164.369456 
L 200.899722 178.228848 
L 201.224701 185.25177 
L 201.549681 292.998191 
L 201.87466 200.358092 
L 202.19964 176.074016 
L 202.524619 169.10935 
L 202.849599 185.0901 
L 203.174578 217.837873 
L 203.499558 203.725857 
L 203.824537 164.747434 
L 204.149517 208.908939 
L 204.474496 221.971043 
L 205.124455 170.461689 
L 205.449435 180.381874 
L 205.774414 176.553282 
L 206.099394 181.774375 
L 206.424373 167.181966 
L 206.749353 176.86506 
L 207.074333 192.878998 
L 207.399312 160.311039 
L 208.049271 191.760479 
L 208.374251 174.676587 
L 208.69923 239.376655 
L 209.02421 192.728635 
L 209.349189 195.301598 
L 209.674169 179.660969 
L 209.999148 192.833772 
L 210.324128 187.806105 
L 210.649107 168.107474 
L 210.974087 188.616927 
L 211.299066 173.958624 
L 211.624046 195.779758 
L 211.949025 182.147325 
L 212.598984 170.695271 
L 213.573923 201.074023 
L 213.898903 204.060268 
L 214.223882 157.451587 
L 214.548862 182.228035 
L 214.873841 180.536303 
L 215.198821 171.011649 
L 215.5238 179.41526 
L 215.84878 180.395346 
L 216.173759 171.085343 
L 216.498739 176.379198 
L 216.823718 174.106282 
L 217.148698 166.932144 
L 217.473677 202.970978 
L 217.798657 173.688518 
L 218.448616 169.059312 
L 218.773595 176.113338 
L 219.098575 188.455959 
L 219.423554 186.434065 
L 219.748534 189.01676 
L 220.073514 170.888784 
L 220.398493 162.173067 
L 220.723473 169.440966 
L 221.048452 166.802911 
L 221.373432 183.866495 
L 221.698411 170.264372 
L 222.023391 165.456838 
L 222.34837 175.432375 
L 222.67335 169.904422 
L 222.998329 195.572643 
L 223.323309 176.505867 
L 223.648288 180.559451 
L 223.973268 192.163865 
L 224.298247 198.893907 
L 224.948206 158.689006 
L 225.273186 209.82411 
L 225.598165 176.428205 
L 225.923145 165.26731 
L 226.248124 192.944264 
L 226.573104 198.85648 
L 226.898084 172.562855 
L 227.223063 189.21162 
L 227.548043 181.83777 
L 228.198002 184.158993 
L 228.522981 184.566658 
L 228.847961 160.894602 
L 229.17294 175.646186 
L 229.49792 169.589038 
L 229.822899 198.723543 
L 230.147879 192.974763 
L 230.472858 189.296009 
L 230.797838 187.50757 
L 231.122817 166.241655 
L 231.447797 185.76177 
L 231.772776 170.861901 
L 232.097756 204.17431 
L 232.422735 165.790206 
L 232.747715 180.59709 
L 233.072695 212.530946 
L 233.397674 167.651083 
L 233.722654 178.72517 
L 234.047633 174.473895 
L 234.372613 194.372754 
L 234.697592 191.284873 
L 235.022572 192.964217 
L 235.347551 169.114203 
L 235.99751 179.865809 
L 236.32249 179.866749 
L 236.647469 164.148128 
L 236.972449 171.257411 
L 237.297428 171.451153 
L 237.622408 183.485449 
L 237.947387 189.265689 
L 238.272367 175.863726 
L 238.597346 181.681932 
L 238.922326 174.45942 
L 239.247305 180.789548 
L 239.572285 191.467446 
L 239.897265 172.095862 
L 240.222244 174.850221 
L 240.547224 175.290826 
L 240.872203 193.67534 
L 241.197183 155.522879 
L 241.522162 188.584978 
L 241.847142 190.103113 
L 242.172121 162.574565 
L 242.497101 164.344239 
L 242.82208 190.941799 
L 243.14706 195.78782 
L 243.472039 145.491416 
L 243.797019 185.584169 
L 244.121998 183.185652 
L 244.446978 190.827827 
L 244.771957 173.155783 
L 245.096937 172.944536 
L 245.421916 170.295862 
L 245.746896 158.342506 
L 246.071876 172.358418 
L 246.396855 178.912362 
L 246.721835 206.676026 
L 247.046814 201.967245 
L 247.371794 173.796127 
L 247.696773 166.658556 
L 248.021753 163.555116 
L 248.671712 181.029088 
L 248.996691 172.720036 
L 249.321671 172.080354 
L 249.64665 178.709855 
L 249.97163 156.618618 
L 250.296609 175.844869 
L 250.621589 172.583534 
L 250.946568 183.057221 
L 251.271548 180.150717 
L 251.596527 185.819338 
L 251.921507 176.491238 
L 252.246486 192.518705 
L 252.571466 171.049454 
L 252.896446 176.79274 
L 253.221425 199.420331 
L 253.546405 176.100307 
L 253.871384 191.607185 
L 254.196364 196.917954 
L 254.521343 197.225141 
L 254.846323 180.363958 
L 255.171302 175.092623 
L 255.496282 206.627132 
L 255.821261 168.860777 
L 256.146241 195.275548 
L 256.7962 188.833489 
L 257.121179 180.294861 
L 257.771138 196.548903 
L 258.096118 176.876613 
L 258.421097 199.643414 
L 258.746077 188.780164 
L 259.071057 182.160065 
L 259.721016 189.92209 
L 260.045995 203.721029 
L 260.370975 192.526231 
L 260.695954 158.595522 
L 261.020934 203.574884 
L 261.345913 191.045748 
L 261.670893 172.654556 
L 261.995872 183.75307 
L 262.320852 176.991806 
L 262.645831 177.896258 
L 262.970811 177.942927 
L 263.29579 168.45057 
L 263.62077 205.485954 
L 263.945749 178.287033 
L 264.270729 182.502901 
L 264.595708 180.565521 
L 264.920688 189.31837 
L 265.245667 185.526806 
L 265.570647 173.610848 
L 265.895627 191.942794 
L 266.545586 172.548491 
L 266.870565 193.909409 
L 267.195545 167.500868 
L 267.520524 197.638111 
L 267.845504 209.620681 
L 268.170483 169.243289 
L 268.495463 183.868176 
L 269.145422 159.749888 
L 269.470401 182.34016 
L 269.795381 180.999617 
L 270.12036 197.041411 
L 270.44534 184.688915 
L 271.095299 195.112201 
L 271.745258 165.305845 
L 272.070238 199.909534 
L 272.395217 179.701465 
L 272.720197 192.239726 
L 273.045176 179.239768 
L 273.370156 192.045388 
L 274.020115 248.906523 
L 274.345094 175.693132 
L 274.670074 175.116082 
L 274.995053 186.961659 
L 275.320033 172.973459 
L 275.645012 227.75339 
L 275.969992 199.048547 
L 276.294971 214.681138 
L 276.619951 165.951297 
L 276.94493 175.670247 
L 277.26991 178.096551 
L 277.594889 181.701469 
L 277.919869 163.695405 
L 278.244848 170.161645 
L 278.569828 186.203504 
L 278.894808 184.653419 
L 279.219787 180.319773 
L 279.544767 201.9044 
L 279.869746 179.197677 
L 280.194726 167.292472 
L 280.519705 174.633671 
L 280.844685 170.466167 
L 281.169664 198.137112 
L 281.494644 177.827576 
L 281.819623 229.430337 
L 282.469582 169.447672 
L 282.794562 209.845316 
L 283.119541 197.436875 
L 283.444521 193.899964 
L 283.7695 200.835684 
L 284.09448 196.208309 
L 284.419459 174.178068 
L 285.069419 179.595542 
L 285.394398 178.985943 
L 285.719378 185.428883 
L 286.044357 172.671195 
L 286.369337 191.697387 
L 286.694316 168.110342 
L 287.019296 194.367664 
L 287.344275 165.950738 
L 287.669255 186.501227 
L 287.994234 186.50368 
L 288.319214 172.897054 
L 288.644193 169.948251 
L 289.294152 210.123334 
L 289.619132 176.661801 
L 289.944111 183.871755 
L 290.269091 223.232805 
L 290.59407 191.678515 
L 290.91905 182.07427 
L 291.244029 192.093337 
L 291.569009 195.448414 
L 292.218968 167.514383 
L 292.543948 166.259394 
L 292.868927 173.68827 
L 293.193907 170.553376 
L 293.518886 171.873031 
L 293.843866 193.859654 
L 294.168845 195.450149 
L 294.493825 189.388914 
L 294.818804 174.691731 
L 295.143784 167.5114 
L 295.468763 169.457892 
L 295.793743 252.235838 
L 296.118722 240.93783 
L 296.443702 195.703171 
L 296.768681 183.050575 
L 297.093661 184.680387 
L 297.41864 199.112036 
L 297.74362 171.448378 
L 298.0686 185.676404 
L 298.393579 161.634939 
L 298.718559 180.016678 
L 299.368518 165.247259 
L 299.693497 193.284366 
L 300.018477 191.508125 
L 300.343456 198.816777 
L 300.993415 182.672218 
L 301.318395 221.364069 
L 301.643374 186.394483 
L 301.968354 205.429442 
L 302.293333 193.244069 
L 302.618313 187.323908 
L 302.943292 188.830356 
L 303.268272 189.557664 
L 303.593251 169.323236 
L 303.918231 214.679393 
L 304.24321 166.584604 
L 304.56819 174.22428 
L 304.89317 170.13923 
L 305.218149 175.783644 
L 305.543129 202.747854 
L 305.868108 178.145314 
L 306.193088 179.379842 
L 306.518067 171.539069 
L 306.843047 176.321264 
L 307.168026 190.688951 
L 307.493006 179.019588 
L 307.817985 184.081303 
L 308.142965 233.033759 
L 308.467944 172.229061 
L 308.792924 179.814346 
L 309.117903 183.459913 
L 309.442883 169.054991 
L 309.767862 183.387427 
L 310.092842 179.966223 
L 310.417821 171.317384 
L 310.742801 176.786817 
L 311.067781 169.727877 
L 311.39276 195.879308 
L 311.71774 209.038859 
L 312.042719 164.20521 
L 312.367699 169.578167 
L 312.692678 177.084813 
L 313.017658 226.500027 
L 313.342637 175.67763 
L 313.667617 175.351234 
L 313.992596 177.957014 
L 314.317576 200.301129 
L 314.642555 183.261896 
L 314.967535 197.46612 
L 315.292514 166.036594 
L 315.617494 206.455206 
L 315.942473 177.431739 
L 316.267453 174.868635 
L 316.592432 166.546404 
L 316.917412 176.649064 
L 317.242391 176.272108 
L 317.567371 182.573604 
L 317.892351 164.772117 
L 318.21733 197.329956 
L 318.54231 177.439605 
L 319.192269 174.368321 
L 319.517248 188.888064 
L 319.842228 177.191927 
L 320.167207 201.692392 
L 320.492187 179.067641 
L 320.817166 210.304177 
L 321.142146 178.626328 
L 321.467125 160.876609 
L 321.792105 183.344973 
L 322.117084 187.352586 
L 322.442064 201.756171 
L 322.767043 196.846272 
L 323.092023 180.760835 
L 323.417002 194.484475 
L 323.741982 172.988352 
L 324.066962 186.86064 
L 324.716921 164.705183 
L 325.0419 179.51002 
L 325.36688 164.696825 
L 325.691859 183.979676 
L 326.016839 176.040654 
L 326.341818 162.584037 
L 326.666798 194.14054 
L 326.991777 168.708756 
L 327.316757 197.125098 
L 327.641736 181.876878 
L 327.966716 191.647285 
L 328.291695 195.492833 
L 328.616675 166.632147 
L 328.941654 182.741608 
L 329.266634 174.432473 
L 329.591613 188.349296 
L 329.916593 173.008105 
L 330.241572 189.131543 
L 330.566552 189.226769 
L 330.891532 200.221094 
L 331.216511 163.708399 
L 331.541491 170.095823 
L 331.86647 191.896997 
L 332.19145 194.941894 
L 332.516429 178.512468 
L 332.841409 174.233045 
L 333.166388 186.789859 
L 333.491368 174.125444 
L 333.816347 175.149516 
L 334.141327 166.334781 
L 334.466306 208.560708 
L 334.791286 171.41262 
L 335.116265 183.974837 
L 335.441245 203.855669 
L 335.766224 160.232861 
L 336.091204 191.979843 
L 336.416183 182.837152 
L 336.741163 188.086392 
L 337.066143 176.804149 
L 337.391122 180.022221 
L 337.716102 194.475396 
L 338.041081 172.514285 
L 338.366061 178.451045 
L 338.69104 161.072831 
L 339.01602 197.007059 
L 339.340999 169.917878 
L 339.665979 184.848364 
L 339.990958 186.203169 
L 340.315938 180.583592 
L 340.640917 223.833883 
L 340.965897 204.585463 
L 341.290876 175.196375 
L 341.615856 198.600176 
L 341.940835 182.0547 
L 342.265815 172.238683 
L 342.590794 177.585079 
L 342.915774 165.242563 
L 343.240753 166.146749 
L 343.565733 177.212008 
L 343.890713 202.635427 
L 344.215692 190.483603 
L 344.540672 201.321985 
L 344.865651 201.05317 
L 345.190631 201.764034 
L 345.51561 210.171994 
L 345.84059 165.933589 
L 346.165569 182.902939 
L 346.490549 167.959514 
L 346.815528 179.905111 
L 347.140508 240.072347 
L 347.465487 186.794999 
L 347.790467 187.864868 
L 348.115446 179.93933 
L 348.440426 198.405287 
L 348.765405 188.241873 
L 349.090385 185.764612 
L 349.415364 171.978233 
L 349.740344 204.4658 
L 350.065324 191.830478 
L 350.390303 199.29725 
L 350.715283 199.200214 
L 351.040262 204.627131 
L 351.365242 186.117093 
L 351.690221 159.867612 
L 352.015201 172.456353 
L 352.66516 211.631452 
L 352.990139 197.23671 
L 353.315119 157.730675 
L 353.640098 175.622772 
L 353.965078 175.048792 
L 354.290057 175.670874 
L 354.615037 183.652056 
L 354.940016 173.747742 
L 355.264996 194.136378 
L 355.589975 165.847215 
L 355.914955 181.922971 
L 356.239934 168.926473 
L 356.564914 168.579578 
L 356.889894 175.378733 
L 357.214873 175.400849 
L 357.539853 176.722886 
L 357.864832 161.411355 
L 358.189812 209.624777 
L 358.514791 180.625471 
L 358.839771 178.755469 
L 359.16475 185.062721 
L 359.48973 176.781569 
L 359.814709 188.492512 
L 360.139689 163.540818 
L 360.464668 179.162334 
L 360.789648 179.176018 
L 361.114627 174.566417 
L 361.439607 176.435001 
L 361.764586 171.22317 
L 362.089566 169.433828 
L 362.414545 173.329092 
L 362.739525 169.42225 
L 363.064505 177.819544 
L 363.389484 174.966505 
L 363.714464 201.274236 
L 364.039443 174.80473 
L 364.364423 175.666123 
L 364.689402 165.650515 
L 365.014382 181.55434 
L 365.339361 211.537545 
L 365.664341 187.054362 
L 365.98932 230.381883 
L 366.3143 162.458216 
L 366.639279 166.965675 
L 366.964259 196.724022 
L 367.289238 182.082068 
L 367.614218 189.697151 
L 367.939197 186.97653 
L 368.264177 176.663629 
L 368.589156 182.210011 
L 368.914136 194.796724 
L 369.239115 183.630101 
L 369.564095 176.588909 
L 369.889075 188.408421 
L 370.214054 175.461649 
L 370.864013 180.806173 
L 371.188993 197.112521 
L 371.513972 169.129129 
L 371.838952 169.057705 
L 372.163931 169.462592 
L 372.488911 174.265959 
L 372.81389 185.106632 
L 373.13887 185.173612 
L 373.463849 172.710074 
L 373.788829 184.562828 
L 374.113808 160.377961 
L 374.438788 178.150572 
L 374.763767 174.353807 
L 375.088747 199.864763 
L 375.413726 201.757282 
L 375.738706 186.888877 
L 376.063686 190.325667 
L 376.388665 173.520209 
L 376.713645 165.5902 
L 377.038624 175.352853 
L 377.363604 174.595034 
L 377.688583 177.206686 
L 378.013563 196.831186 
L 378.338542 176.886986 
L 378.663522 170.71561 
L 378.988501 217.649352 
L 379.313481 179.459709 
L 379.63846 170.449569 
L 379.96344 166.440908 
L 380.288419 176.298685 
L 380.613399 218.856653 
L 380.938378 177.121699 
L 381.263358 170.131584 
L 381.588337 185.706758 
L 381.913317 170.023028 
L 382.563276 198.995737 
L 382.888256 172.325268 
L 383.213235 174.237534 
L 383.538215 195.028934 
L 383.863194 178.772669 
L 384.188174 225.584025 
L 384.513153 211.79038 
L 384.838133 168.045225 
L 385.163112 198.075383 
L 385.488092 164.267079 
L 385.813071 185.348668 
L 386.46303 174.97841 
L 386.78801 180.129493 
L 387.437969 164.552956 
L 387.762948 163.997461 
L 388.087928 193.203826 
L 388.412907 171.843614 
L 388.737887 171.504142 
L 389.062867 218.656713 
L 389.387846 165.540036 
L 389.712826 178.048248 
L 390.037805 171.367378 
L 390.362785 167.28217 
L 390.687764 169.220787 
L 391.337723 212.140917 
L 391.987682 180.441846 
L 392.312662 188.836429 
L 392.637641 167.992706 
L 393.2876 191.947696 
L 393.61258 170.761509 
L 393.937559 163.85976 
L 394.587518 184.23879 
L 394.912498 188.722377 
L 395.237477 218.713279 
L 395.562457 166.902314 
L 395.887437 198.572543 
L 396.212416 166.364234 
L 396.537396 195.042418 
L 396.862375 179.386791 
L 397.187355 198.105621 
L 397.512334 164.486388 
L 397.837314 175.712632 
L 398.162293 211.460848 
L 398.487273 53.568 
L 398.487273 53.568 
" style="fill:none;stroke:#1f77b4;stroke-linecap:square;stroke-width:1.5;"/>
   </g>
   <g id="patch_3">
    <path d="M 57.6 307.584 
L 57.6 41.472 
" style="fill:none;stroke:#000000;stroke-linecap:square;stroke-linejoin:miter;stroke-width:0.8;"/>
   </g>
   <g id="patch_4">
    <path d="M 414.72 307.584 
L 414.72 41.472 
" style="fill:none;stroke:#000000;stroke-linecap:square;stroke-linejoin:miter;stroke-width:0.8;"/>
   </g>
   <g id="patch_5">
    <path d="M 57.6 307.584 
L 414.72 307.584 
" style="fill:none;stroke:#000000;stroke-linecap:square;stroke-linejoin:miter;stroke-width:0.8;"/>
   </g>
   <g id="patch_6">
    <path d="M 57.6 41.472 
L 414.72 41.472 
" style="fill:none;stroke:#000000;stroke-linecap:square;stroke-linejoin:miter;stroke-width:0.8;"/>
   </g>
  </g>
 </g>
 <defs>
  <clipPath id="pd5a428e9c4">
   <rect height="266.112" width="357.12" x="57.6" y="41.472"/>
  </clipPath>
 </defs>
</svg>
